<svg xmlns="http://www.w3.org/2000/svg" viewBox="0 0 24.46 24.46"><defs><style>.cls-1{fill:none;stroke:#6d6d6d;stroke-miterlimit:10;stroke-width:2px;}</style></defs><g id="Layer_2" data-name="Layer 2"><g id="Layer_1-2" data-name="Layer 1"><circle class="cls-1" cx="12.23" cy="12.23" r="11.23"/><path class="cls-1" d="M10.26,10.46a.71.71,0,0,1,.15-.15,2.43,2.43,0,0,0,.49-.41,1,1,0,0,0,.23-.75,1.49,1.49,0,0,0-.29-.54l-1-1.32a2.07,2.07,0,0,0-.56-.58,1.25,1.25,0,0,0-1.19.16,2.63,2.63,0,0,0-1.4,1.32,3.17,3.17,0,0,0,.17,1.92,6.27,6.27,0,0,0,.6,1.5,14.41,14.41,0,0,0,4.25,4.77,7.83,7.83,0,0,0,2.41,1.3,4,4,0,0,0,1.94.09,2.09,2.09,0,0,0,1.44-1.1,1.44,1.44,0,0,0,.25-1.53,2,2,0,0,0-.59-.57l-1.21-.89c-.32-.23-.7-.48-1.07-.35a1.66,1.66,0,0,0-.62.53.87.87,0,0,1-.49.28c-.21,0-.31-.1-.47-.23-.34-.29-.68-.59-1-.9-.67-.62-1.32-1.27-1.93-1.94a.67.67,0,0,1-.18-.3A.39.39,0,0,1,10.26,10.46Z"/></g></g></svg>